# xmcd
# 
# Track frame offsets:
#     150
#     16462
#     32925
#     51247
#     71212
#     87200
#     104647
#     126150
#     141900
#     157250
# 
# Disc length: 2457
# 
# Revision: 0
# Processed by: cddbd v1.5.2PL0 Copyright (c) Steve Scherf et al.
# Submitted via: BonkEnc v1.0
# 
DISCID=9709970a
DTITLE=Cory Morrow - Ten Years
DYEAR=2007
DGENRE=Country
TTITLE0=Spinning Around The Moon
TTITLE1=Nothing Better
TTITLE2=I Don't Want to Get Up
TTITLE3=Preacher
TTITLE4=Always And Forever
TTITLE5=Beat Of Your Heart
TTITLE6=Drinkin' Alone
TTITLE7=More Than Perfect
TTITLE8=21 Days
TTITLE9=Big City Stripper
EXTD=
EXTT0=
EXTT1=
EXTT2=
EXTT3=
EXTT4=
EXTT5=
EXTT6=
EXTT7=
EXTT8=
EXTT9=
PLAYORDER=
